<svg width="21" height="21" viewBox="0 0 21 21" fill="none" xmlns="http://www.w3.org/2000/svg">
<path d="M18.7106 16.882C18.6362 16.714 18.6194 16.4692 18.6818 16.2964C19.1642 14.9284 19.6586 13.5676 20.1722 12.2092C20.7194 10.7668 21.1442 9.31479 20.9306 7.73799C20.6882 5.94759 19.9538 4.39719 18.6314 3.17319C17.9858 2.57799 17.2298 2.10999 16.481 1.55319C16.5386 1.39479 16.6322 1.14759 16.7234 0.900389C16.8722 0.492389 16.757 0.173189 16.4138 0.0459893C16.061 -0.0836107 15.7658 0.0627892 15.6002 0.458789C15.4922 0.713189 15.3962 0.969989 15.2906 1.23399C14.2922 0.989189 13.3058 0.890789 12.305 1.03479C9.32178 1.46199 7.16898 3.02679 6.00498 5.81799C5.29218 7.53399 4.70418 9.30279 4.07058 11.05C3.99378 11.266 3.87138 11.3932 3.66258 11.4868C2.60178 11.962 1.54818 12.4516 0.487379 12.934C0.204179 13.0612 -0.00702132 13.2412 0.000178683 13.5772C0.00737868 13.9252 0.252179 14.0644 0.540179 14.1676C2.52018 14.878 4.49538 15.5956 6.48018 16.2916C6.77778 16.3972 6.88098 16.5148 6.86418 16.8436C6.76338 19.0468 8.82978 20.6884 10.9682 20.1292C11.8346 19.9036 12.4946 19.3972 12.9914 18.6436C13.0946 18.6796 13.1882 18.7132 13.2818 18.7444C15.293 19.4644 17.3042 20.1844 19.3154 20.9092C19.6178 21.0172 19.8962 21.0628 20.1458 20.806C20.405 20.5372 20.297 20.2612 20.1626 19.978C19.6682 18.9532 19.1762 17.9236 18.7106 16.882ZM9.60738 18.9604C8.64978 18.6844 8.01618 17.8252 8.08338 16.846C9.33618 17.2924 10.5626 17.7316 11.7938 18.1708C11.4434 18.8428 10.4378 19.2004 9.60738 18.9604Z" fill="#CACCCF"/>
</svg>
