<svg width="14" height="14" viewBox="0 0 14 14" fill="none" xmlns="http://www.w3.org/2000/svg">
<path d="M11.2028 9.7608C11.1006 9.6586 11.0866 9.4822 11.165 9.3604C11.781 8.4126 12.1422 7.2842 12.1422 6.0718C12.1422 2.723 9.4178 0 6.0718 0C2.723 0 0 2.723 0 6.0718C0 9.4192 2.723 12.1422 6.0718 12.1422C7.3752 12.1422 8.582 11.7236 9.5732 11.0208C9.6894 10.9368 9.8644 10.948 9.9666 11.0488L12.1366 13.2188C12.1506 13.2328 12.166 13.2468 12.1814 13.258C12.2066 13.279 12.3116 13.377 12.4124 13.4792L12.67 13.7354C12.7722 13.8362 12.9374 13.8362 13.0382 13.7354L13.923 12.8506C14.0252 12.7484 14.0252 12.5832 13.9244 12.481L11.2028 9.7608ZM9.744 8.8998C9.5438 9.1602 9.3184 9.3982 9.0692 9.6096C8.26 10.297 7.2142 10.7142 6.0718 10.7142C3.5112 10.7142 1.428 8.631 1.428 6.0718C1.428 3.5126 3.5112 1.428 6.0718 1.428C8.631 1.428 10.7142 3.5112 10.7142 6.0718C10.7142 7.1358 10.3488 8.1158 9.744 8.8998Z" fill="#CACCCF"/>
</svg>
