<svg width="16" height="16" viewBox="0 0 16 16" fill="none" xmlns="http://www.w3.org/2000/svg">
<path d="M15.6463 6.79999C15.0799 6.35359 14.0223 6.73439 13.1983 7.64959C12.4287 7.43519 11.7455 7.48799 11.1631 7.81599C10.0479 8.44479 9.62554 9.89119 9.46873 10.9904C9.44473 11.16 9.42234 11.3328 9.39834 11.5056C9.14874 13.408 8.91193 15.2064 6.65593 15.2064C6.61913 15.2064 6.58233 15.2064 6.54393 15.2048C5.90393 15.1888 5.44313 14.9904 5.13593 14.5968C4.56953 13.8704 4.66713 12.6832 4.73913 12.1904C4.96313 12.0896 5.12153 11.8688 5.12953 11.608L5.16313 10.6336L6.35833 10.2784C6.50713 10.2336 6.62233 10.1392 6.70553 10.0224C6.91993 10.0704 7.18713 10.0592 7.37593 9.94079C7.70713 9.73439 8.19034 9.33759 8.79193 8.58719C9.44954 7.76639 9.61114 7.10559 9.62714 6.67679C9.63514 6.37119 9.42233 6.06079 9.26394 5.97439C9.10553 5.88799 9.07674 6.04959 9.10713 6.35359C9.15194 6.81119 9.07994 7.50719 8.48953 8.26399C8.47833 8.27679 8.46873 8.28639 8.45914 8.29919L8.46393 8.26559C8.60474 8.04799 8.72634 7.81919 8.81913 7.57439C9.77914 5.03199 7.70393 2.06559 7.61433 1.94079C7.59513 1.91359 7.56953 1.89599 7.54393 1.87519C7.60313 1.73919 7.58873 1.61599 7.48953 1.55199C7.33433 1.45119 7.09113 1.14879 6.95033 0.876793L6.70073 0.399993C6.56153 0.129593 6.26713 0.0815932 6.04633 0.292793L5.42713 0.894393C5.20473 1.10559 5.24793 1.39199 5.51833 1.53439L5.95513 1.75839C6.22553 1.90079 6.52153 2.15679 6.61753 2.33119C6.68953 2.46079 6.85593 2.47999 7.02713 2.39199C7.20313 2.64799 8.91193 5.24159 8.12793 7.31679C8.09593 7.40159 8.04633 7.47999 8.00473 7.56159L7.99993 7.56319C7.95193 7.55199 7.90553 7.53439 7.85593 7.53439C7.73273 7.53439 7.61753 7.57119 7.52153 7.63199L7.66713 7.77119C7.57913 7.87839 7.51993 8.00959 7.51993 8.15839C7.51993 8.19519 7.52793 8.23039 7.53433 8.26559C7.25913 8.56639 6.91513 8.83519 6.49913 9.06399C6.34553 8.97759 6.15993 8.95039 5.97913 9.00479L4.52313 9.43679L2.96473 8.94399C2.78713 8.88799 2.60153 8.91199 2.44953 8.99519C1.70713 8.55519 1.20153 7.99359 0.943934 7.31679C0.123134 5.14239 2.04153 2.39679 2.06073 2.36959C2.06233 2.36479 2.06233 2.35999 2.06713 2.35519C2.06713 2.35519 2.11193 2.39839 2.16793 2.44799C2.22393 2.50079 2.34553 2.40159 2.44153 2.22719C2.53593 2.05119 2.83513 1.79519 3.10553 1.65439L3.54073 1.42879C3.81273 1.28799 3.85433 1.00159 3.63353 0.788793L3.01273 0.188793C2.79193 -0.0240068 2.50073 0.0239932 2.35833 0.295993L2.11033 0.772793C1.96793 1.04479 1.72633 1.34559 1.57113 1.44799C1.41273 1.54719 1.34393 1.68319 1.41273 1.74719L1.53913 1.86559C1.50873 1.88639 1.48153 1.90879 1.45753 1.94079C1.36793 2.06559 -0.707266 5.03199 0.252734 7.57439C0.575934 8.42559 1.19673 9.11839 2.10553 9.64639C2.12953 9.90079 2.30393 10.128 2.56313 10.2112L3.83513 10.6128L3.80153 11.5616C3.79673 11.7584 3.87833 11.9376 4.00953 12.0656C3.92153 12.6528 3.80473 14.0896 4.55193 15.048C4.99833 15.6208 5.66233 15.9216 6.52633 15.9424C6.57273 15.9456 6.61753 15.9456 6.66233 15.9456C9.55993 15.9456 9.87674 13.5408 10.1311 11.6032C10.1535 11.4336 10.1759 11.264 10.1999 11.096C10.3887 9.77279 10.8591 8.83679 11.5263 8.46079C11.8607 8.27039 12.2623 8.21759 12.7199 8.29759C12.1455 9.24639 12.0735 10.2368 12.5967 10.6528C13.2031 11.1328 14.3775 10.6592 15.2191 9.59519C16.0607 8.53119 16.2511 7.27999 15.6463 6.79999ZM8.35353 8.42559C8.30394 8.48479 8.25434 8.54879 8.20634 8.60319C8.25434 8.54239 8.30233 8.48159 8.34714 8.41919L8.35353 8.42559ZM14.1375 8.71519C13.8223 9.11519 13.3823 9.29279 13.1551 9.11199C12.9887 8.98079 12.9839 8.69439 13.1151 8.39359C13.2351 8.43199 13.3567 8.47359 13.4815 8.52639C13.6719 8.60639 13.8863 8.51999 13.9663 8.33119C14.0463 8.14399 13.9583 7.92639 13.7695 7.84639C13.7135 7.82239 13.6607 7.80479 13.6047 7.78559C13.8623 7.59679 14.1327 7.53919 14.2943 7.66879C14.5231 7.84959 14.4511 8.31839 14.1375 8.71519Z" fill="#DBDDE0"/>
</svg>
