<svg width="14" height="16" viewBox="0 0 14 16" fill="none" xmlns="http://www.w3.org/2000/svg">
<path d="M13.2682 15.2881C13.2042 14.6753 13.1882 14.0577 13.1274 13.4433C13.0362 12.5233 12.905 11.6081 12.633 10.7201C12.4858 10.2449 12.2618 9.83208 11.8154 9.56968C11.3882 9.31848 10.9226 9.16968 10.4554 9.02408C10.2922 8.97288 10.321 9.08808 10.3306 9.17128C10.3738 9.57288 10.337 9.96968 10.2538 10.3617C10.2266 10.4881 10.2698 10.5457 10.3786 10.6081C10.8394 10.8657 11.1018 11.2593 11.1306 11.7921C11.1594 12.3409 11.0474 12.8801 11.0138 13.4241C10.9914 13.7937 10.9514 14.1649 10.7962 14.5089C10.609 14.9249 10.2858 15.0897 9.84418 15.0049C9.67618 14.9729 9.56578 14.8961 9.59298 14.7105C9.62018 14.5281 9.74658 14.4641 9.91458 14.4977C10.1258 14.5393 10.249 14.4401 10.3354 14.2673C10.3946 14.1473 10.4266 14.0161 10.4394 13.8833C10.5018 13.2705 10.569 12.6577 10.6186 12.0433C10.6634 11.4881 10.3658 11.0673 9.87298 10.9553C9.36418 10.8401 8.92578 11.0705 8.71618 11.5889C8.54818 12.0033 8.41058 12.4305 8.25058 12.8497C8.15938 13.0865 8.08098 13.3249 8.03298 13.5729C7.97058 13.8945 8.03458 14.0129 8.33218 14.1473C8.47458 14.2113 8.54338 14.3121 8.49378 14.4641C8.44418 14.6177 8.33218 14.6609 8.17858 14.6321C7.74018 14.5489 7.48578 14.2369 7.49378 13.7873C7.49698 13.6033 7.52418 13.4257 7.57538 13.2497C7.76418 12.5969 8.01218 11.9649 8.26498 11.3345C8.49218 10.7681 8.94498 10.4561 9.56098 10.4129C9.68098 10.4033 9.73218 10.3697 9.75458 10.2529C9.82978 9.86408 9.84098 9.47528 9.80578 9.08168C9.78978 8.89608 9.71778 8.79528 9.52418 8.76488C9.36738 8.74088 9.21058 8.68808 9.06338 8.62728C8.91618 8.56808 8.85218 8.58568 8.80098 8.75208C8.62018 9.35688 8.36738 9.93448 8.07458 10.4945C7.93378 10.7649 7.77058 11.0241 7.58978 11.3377C7.51778 10.9409 7.46338 10.6033 7.39298 10.2673C7.36098 10.1169 7.36418 9.98088 7.42978 9.83848C7.46658 9.75688 7.56418 9.66088 7.46658 9.57288C7.31138 9.43208 7.14178 9.30888 6.97698 9.17928C6.97218 9.17448 6.94978 9.18568 6.94018 9.19368C6.78018 9.33128 6.59778 9.44968 6.47298 9.61288C6.39778 9.71048 6.54338 9.83848 6.57538 9.95688C6.58178 9.98408 6.59618 10.0129 6.59298 10.0385C6.52578 10.4513 6.45538 10.8625 6.38018 11.3137C6.32738 11.2513 6.30338 11.2273 6.28738 11.2001C5.86498 10.5185 5.52098 9.80168 5.26018 9.04328C5.20738 8.88808 5.21218 8.64808 5.07938 8.59848C4.95458 8.55208 4.76738 8.67528 4.60738 8.72008C4.52418 8.74408 4.45058 8.76648 4.41858 8.86408C4.35778 9.05288 4.27138 9.23208 4.22658 9.42088C3.93218 10.6497 4.00578 11.8657 4.38498 13.0673C4.44258 13.2497 4.51138 13.3489 4.71938 13.3889C5.12098 13.4689 5.33698 13.9089 5.19938 14.2897C5.05538 14.6913 4.62178 14.8801 4.24418 14.7073C3.86338 14.5345 3.70018 14.0657 3.92098 13.7169C4.00098 13.5905 3.99138 13.4929 3.94818 13.3681C3.54178 12.2017 3.43298 11.0081 3.62018 9.78568C3.66338 9.50408 3.75778 9.23528 3.82178 8.93768C3.26338 9.10088 2.72738 9.23688 2.24418 9.51848C1.88898 9.72488 1.61378 9.99528 1.45858 10.3889C1.27298 10.8609 1.16098 11.3505 1.06658 11.8465C0.84898 12.9985 0.78178 14.1681 0.69378 15.3345C0.66978 15.6529 0.81218 15.8497 1.06498 15.9985H12.8874C13.1882 15.8561 13.3034 15.6289 13.2682 15.2881ZM4.32738 5.44808C4.43618 5.47688 4.48738 5.52968 4.52898 5.62888C4.77378 6.21448 5.07618 6.76488 5.52578 7.22248C5.88098 7.58568 6.29218 7.85768 6.81378 7.91048C7.46978 7.97768 7.98178 7.68488 8.42498 7.24168C8.87618 6.78888 9.18978 6.24488 9.43458 5.65608C9.46818 5.57608 9.47938 5.47528 9.60098 5.46408C10.0378 5.42248 10.3786 4.73128 10.3066 4.31048C10.2858 4.19048 10.241 4.08008 10.1098 4.07208C9.94658 4.06088 9.97698 3.97448 10.001 3.87368C10.0874 3.51208 10.1242 3.14248 10.1418 2.82568C10.153 2.50408 10.1226 2.23688 10.0586 1.98088C9.96098 1.59368 9.76098 1.26088 9.39778 1.07528C9.18338 0.964882 9.01858 0.843282 8.94658 0.604882C8.91938 0.512082 8.82818 0.451282 8.75298 0.388882C8.47458 0.158482 8.14498 0.0576819 7.80258 0.0240819C6.77698 -0.0767181 5.82018 0.142482 4.97378 0.739282C4.38978 1.14888 3.98818 1.68968 3.90658 2.42568C3.85218 2.91048 3.87938 3.39048 3.97058 3.86888C3.98978 3.97128 4.03138 4.07848 3.85058 4.07528C3.76898 4.07368 3.71618 4.14248 3.68898 4.22248C3.53858 4.65128 3.88578 5.33128 4.32738 5.44808Z" fill="#DBDDE0"/>
</svg>
