<svg width="14" height="16" viewBox="0 0 14 16" fill="none" xmlns="http://www.w3.org/2000/svg">
<path d="M6.32967 1.3344C6.32967 2.0704 5.73287 2.6688 4.99527 2.6688C4.25767 2.6688 3.66087 2.072 3.66087 1.3344C3.66087 0.5968 4.26087 0 4.99687 0C5.73287 0 6.32967 0.5984 6.32967 1.3344ZM10.3937 12.256C10.1361 12.1328 9.82887 12.2416 9.70567 12.4992C8.98887 13.9968 7.45287 14.9648 5.79207 14.9648C3.40167 14.9648 1.45767 13.0208 1.45767 10.6304C1.45767 9.2736 2.07527 8.0192 3.15367 7.1904C3.38087 7.016 3.42247 6.6928 3.24807 6.4656C3.07527 6.24 2.75047 6.1984 2.52487 6.3712C1.18887 7.3984 0.424072 8.9504 0.424072 10.632C0.424072 13.5904 2.83207 16 5.79207 16C7.84647 16 9.74887 14.8 10.6369 12.9456C10.7601 12.688 10.6497 12.3792 10.3937 12.256ZM13.5025 12.6544L10.7217 8.1936C10.5889 7.9792 10.3265 7.9296 10.0449 7.9408H6.54407C6.40167 7.9408 6.28647 7.9248 6.28647 7.9072L6.28967 7.8752V7.3072C6.28967 7.1648 6.31207 7.0544 6.34087 7.056C6.35687 7.0576 6.37447 7.0592 6.39367 7.0592H9.44807C9.79207 7.0592 10.0721 6.7808 10.0721 6.4352C10.0721 6.0912 9.79367 5.8112 9.44807 5.8112H6.39367C6.37447 5.8112 6.35847 5.8128 6.34087 5.816C6.31207 5.8176 6.28967 5.7072 6.28967 5.5648V4.1056C6.28967 3.5504 5.83847 3.1008 5.28487 3.1008H5.00647C4.45287 3.1008 4.00327 3.5504 4.00327 4.1056V9.1536C4.00327 9.7072 4.45287 10.1584 5.00647 10.1584H9.81447C9.95687 10.1584 10.1345 10.2544 10.2145 10.3728C10.6977 11.1024 12.2449 13.44 12.2449 13.44C12.4305 13.7392 12.8657 13.808 13.2129 13.5904C13.5601 13.3744 13.6897 12.9552 13.5025 12.6544Z" fill="#DBDDE0"/>
</svg>
