<svg width="14" height="10" viewBox="0 0 14 10" fill="none" xmlns="http://www.w3.org/2000/svg">
<path d="M14 1.43362C14 0.795223 13.48 0.275223 12.8416 0.275223H1.1584C0.52 0.275223 0 0.795223 0 1.43362V2.08322H14V1.43362ZM0.00159998 4.03042V8.57282C0.00159998 9.21282 0.52 9.73282 1.16 9.73282H12.84C13.48 9.73282 14 9.21282 14 8.57282V4.03042H0.00159998ZM4.2992 8.08002C4.2992 8.12802 4.2592 8.16642 4.2128 8.16642H1.72C1.6736 8.16642 1.6336 8.12802 1.6336 8.08002V7.26882C1.6336 7.22242 1.6736 7.18242 1.72 7.18242H4.2128C4.2592 7.18242 4.2992 7.22242 4.2992 7.26882V8.08002Z" fill="#DBDDE0"/>
</svg>
