<svg width="12" height="14" viewBox="0 0 12 14" fill="none" xmlns="http://www.w3.org/2000/svg">
<path d="M2.00964 13.3248C2.02564 13.7024 2.33604 14 2.71364 14H9.29124C9.66884 14 9.98084 13.7024 9.99524 13.3248L10.4656 3.408H1.53924L2.00964 13.3248ZM7.48964 5.872C7.48964 5.7136 7.61764 5.5856 7.77604 5.5856H8.23364C8.39204 5.5856 8.52004 5.7152 8.52004 5.872V11.5376C8.52004 11.696 8.39044 11.824 8.23364 11.824H7.77604C7.61764 11.824 7.48964 11.696 7.48964 11.5376V5.872ZM5.48804 5.872C5.48804 5.7136 5.61604 5.5856 5.77444 5.5856H6.23204C6.39044 5.5856 6.51845 5.7152 6.51845 5.872V11.5376C6.51845 11.696 6.39044 11.824 6.23204 11.824H5.77444C5.61604 11.824 5.48804 11.696 5.48804 11.5376V5.872ZM3.48484 5.872C3.48484 5.7136 3.61284 5.5856 3.76964 5.5856H4.22724C4.38564 5.5856 4.51364 5.7152 4.51364 5.872V11.5376C4.51364 11.696 4.38404 11.824 4.22724 11.824H3.76964C3.61124 11.824 3.48484 11.696 3.48484 11.5376V5.872ZM10.7776 0.7216H7.74404V0.1472C7.74404 0.0656 7.67844 0 7.59684 0H4.40964C4.32804 0 4.26244 0.0656 4.26244 0.1472V0.7216H1.22724C0.984044 0.7216 0.785645 0.9184 0.785645 1.1632V2.552H11.2192V1.1632C11.2192 0.92 11.0224 0.7216 10.7776 0.7216Z" fill="#FF6760"/>
</svg>
