<svg width="248" height="51" viewBox="0 0 248 51" fill="none" xmlns="http://www.w3.org/2000/svg">
<g clip-path="url(#clip0_3_53)">
<path d="M81 24.5C81 19.2533 85.2533 15 90.5 15H238.5C243.747 15 248 19.2533 248 24.5C248 29.7467 243.747 34 238.5 34H90.5C85.2533 34 81 29.7467 81 24.5Z" fill="#00CA90"/>
<path d="M130.728 26.6011C130.367 27.1187 129.861 27.5068 129.212 27.7656C128.567 28.0195 127.815 28.1465 126.956 28.1465C126.087 28.1465 125.315 27.9438 124.642 27.5386C123.968 27.1284 123.445 26.5474 123.074 25.7954C122.708 25.0435 122.52 24.1719 122.51 23.1807V22.2505C122.51 20.644 122.884 19.3989 123.631 18.5151C124.383 17.6313 125.438 17.1895 126.795 17.1895C127.908 17.1895 128.804 17.4751 129.483 18.0464C130.162 18.6128 130.577 19.4185 130.728 20.4634H129.322C129.058 19.0522 128.218 18.3467 126.802 18.3467C125.86 18.3467 125.145 18.6787 124.656 19.3428C124.173 20.002 123.929 20.959 123.924 22.2139V23.0854C123.924 24.2817 124.197 25.2339 124.744 25.9419C125.291 26.645 126.031 26.9966 126.963 26.9966C127.491 26.9966 127.952 26.938 128.348 26.8208C128.743 26.7036 129.07 26.5059 129.329 26.2275V23.8325H126.861V22.6899H130.728V26.6011ZM136.155 28.1465C135.081 28.1465 134.207 27.7949 133.533 27.0918C132.859 26.3838 132.522 25.439 132.522 24.2573V24.0083C132.522 23.2222 132.671 22.5215 132.969 21.9062C133.272 21.2861 133.692 20.8027 134.229 20.4561C134.771 20.1045 135.357 19.9287 135.987 19.9287C137.017 19.9287 137.818 20.2681 138.389 20.9468C138.96 21.6255 139.246 22.5972 139.246 23.8618V24.4258H133.877C133.897 25.207 134.124 25.8394 134.559 26.3228C134.998 26.8013 135.555 27.0405 136.229 27.0405C136.707 27.0405 137.112 26.9429 137.444 26.7476C137.776 26.5522 138.067 26.2935 138.316 25.9712L139.144 26.6157C138.479 27.6362 137.483 28.1465 136.155 28.1465ZM135.987 21.042C135.44 21.042 134.981 21.2422 134.61 21.6426C134.239 22.0381 134.009 22.5947 133.921 23.3125H137.891V23.21C137.852 22.5215 137.667 21.9893 137.334 21.6133C137.002 21.2324 136.553 21.042 135.987 21.042ZM142.659 18.1562V20.0752H144.139V21.1226H142.659V26.0371C142.659 26.3545 142.725 26.5938 142.857 26.7549C142.989 26.9111 143.213 26.9893 143.531 26.9893C143.687 26.9893 143.902 26.96 144.175 26.9014V28C143.819 28.0977 143.472 28.1465 143.135 28.1465C142.53 28.1465 142.073 27.9634 141.766 27.5972C141.458 27.231 141.304 26.7109 141.304 26.0371V21.1226H139.861V20.0752H141.304V18.1562H142.659ZM155.55 25.2168H151.082L150.079 28H148.628L152.701 17.3359H153.931L158.011 28H156.568L155.55 25.2168ZM151.507 24.0596H155.132L153.316 19.0718L151.507 24.0596ZM160.853 23.8252V28H159.446V17.3359H163.379C164.546 17.3359 165.459 17.6338 166.119 18.2295C166.783 18.8252 167.115 19.6138 167.115 20.5952C167.115 21.6304 166.79 22.4287 166.141 22.9902C165.496 23.5469 164.571 23.8252 163.365 23.8252H160.853ZM160.853 22.6753H163.379C164.131 22.6753 164.708 22.4995 165.108 22.1479C165.508 21.7915 165.708 21.2788 165.708 20.6099C165.708 19.9751 165.508 19.4673 165.108 19.0864C164.708 18.7056 164.158 18.5078 163.46 18.4932H160.853V22.6753ZM170.418 28H169.012V17.3359H170.418V28ZM179.427 23.0415L178.123 24.3965V28H176.717V17.3359H178.123V22.6094L182.862 17.3359H184.561L180.364 22.0454L184.891 28H183.206L179.427 23.0415ZM189.007 28.1465C187.933 28.1465 187.059 27.7949 186.385 27.0918C185.711 26.3838 185.374 25.439 185.374 24.2573V24.0083C185.374 23.2222 185.523 22.5215 185.821 21.9062C186.124 21.2861 186.543 20.8027 187.081 20.4561C187.623 20.1045 188.208 19.9287 188.838 19.9287C189.869 19.9287 190.669 20.2681 191.241 20.9468C191.812 21.6255 192.098 22.5972 192.098 23.8618V24.4258H186.729C186.749 25.207 186.976 25.8394 187.41 26.3228C187.85 26.8013 188.406 27.0405 189.08 27.0405C189.559 27.0405 189.964 26.9429 190.296 26.7476C190.628 26.5522 190.918 26.2935 191.167 25.9712L191.995 26.6157C191.331 27.6362 190.335 28.1465 189.007 28.1465ZM188.838 21.042C188.292 21.042 187.833 21.2422 187.461 21.6426C187.09 22.0381 186.861 22.5947 186.773 23.3125H190.743V23.21C190.704 22.5215 190.518 21.9893 190.186 21.6133C189.854 21.2324 189.405 21.042 188.838 21.042ZM196.163 26.0151L198.008 20.0752H199.458L196.272 29.2231C195.779 30.5415 194.996 31.2007 193.921 31.2007L193.665 31.1787L193.16 31.0835V29.9849L193.526 30.0142C193.985 30.0142 194.341 29.9214 194.595 29.7358C194.854 29.5503 195.066 29.2109 195.232 28.7178L195.533 27.9121L192.706 20.0752H194.185L196.163 26.0151ZM205.289 25.8979C205.289 25.5317 205.149 25.2485 204.871 25.0483C204.598 24.8433 204.117 24.6675 203.428 24.521C202.745 24.3745 202.2 24.1987 201.795 23.9937C201.395 23.7886 201.097 23.5444 200.901 23.2612C200.711 22.978 200.616 22.6411 200.616 22.2505C200.616 21.6011 200.889 21.0518 201.436 20.6025C201.988 20.1533 202.691 19.9287 203.545 19.9287C204.444 19.9287 205.171 20.1606 205.728 20.6245C206.29 21.0884 206.57 21.6816 206.57 22.4043H205.208C205.208 22.0332 205.049 21.7134 204.732 21.4448C204.419 21.1763 204.024 21.042 203.545 21.042C203.052 21.042 202.667 21.1494 202.388 21.3643C202.11 21.5791 201.971 21.8599 201.971 22.2065C201.971 22.5337 202.1 22.7803 202.359 22.9463C202.618 23.1123 203.084 23.271 203.758 23.4224C204.437 23.5737 204.986 23.7544 205.406 23.9644C205.826 24.1743 206.136 24.4282 206.336 24.7261C206.541 25.019 206.644 25.3779 206.644 25.8027C206.644 26.5107 206.36 27.0796 205.794 27.5093C205.228 27.9341 204.493 28.1465 203.589 28.1465C202.955 28.1465 202.393 28.0342 201.905 27.8096C201.417 27.585 201.033 27.2725 200.755 26.8721C200.481 26.4668 200.345 26.0298 200.345 25.561H201.7C201.724 26.0151 201.905 26.3765 202.242 26.645C202.583 26.9087 203.033 27.0405 203.589 27.0405C204.102 27.0405 204.512 26.938 204.82 26.7329C205.132 26.5229 205.289 26.2446 205.289 25.8979Z" fill="white"/>
</g>
<path d="M13.2207 26.9268H17.9375V28H11.9014V18.0469H13.2207V26.9268ZM18.9014 24.2334C18.9014 23.5088 19.0426 22.8571 19.3252 22.2783C19.6123 21.6995 20.0088 21.2529 20.5146 20.9385C21.0251 20.624 21.6061 20.4668 22.2578 20.4668C23.265 20.4668 24.0785 20.8154 24.6982 21.5127C25.3226 22.21 25.6348 23.1374 25.6348 24.2949V24.3838C25.6348 25.1038 25.4958 25.751 25.2178 26.3252C24.9443 26.8949 24.5501 27.3392 24.0352 27.6582C23.5247 27.9772 22.9368 28.1367 22.2715 28.1367C21.2689 28.1367 20.4554 27.7881 19.8311 27.0908C19.2113 26.3936 18.9014 25.4707 18.9014 24.3223V24.2334ZM20.1729 24.3838C20.1729 25.2041 20.362 25.8626 20.7402 26.3594C21.123 26.8561 21.6335 27.1045 22.2715 27.1045C22.9141 27.1045 23.4245 26.8538 23.8027 26.3525C24.181 25.8467 24.3701 25.1403 24.3701 24.2334C24.3701 23.4222 24.1764 22.766 23.7891 22.2646C23.4062 21.7588 22.8958 21.5059 22.2578 21.5059C21.6335 21.5059 21.1299 21.7542 20.7471 22.251C20.3643 22.7477 20.1729 23.4587 20.1729 24.3838ZM26.9199 24.2402C26.9199 23.0872 27.1865 22.1712 27.7197 21.4922C28.2529 20.8086 28.9593 20.4668 29.8389 20.4668C30.7412 20.4668 31.4453 20.7858 31.9512 21.4238L32.0127 20.6035H33.168V27.8223C33.168 28.7793 32.8831 29.5335 32.3135 30.085C31.7484 30.6364 30.9873 30.9121 30.0303 30.9121C29.4971 30.9121 28.9753 30.7982 28.4648 30.5703C27.9544 30.3424 27.5648 30.0303 27.2959 29.6338L27.9521 28.875C28.4945 29.5449 29.1576 29.8799 29.9414 29.8799C30.5566 29.8799 31.0352 29.7067 31.377 29.3604C31.7233 29.014 31.8965 28.5264 31.8965 27.8975V27.2617C31.3906 27.8451 30.7002 28.1367 29.8252 28.1367C28.9593 28.1367 28.2575 27.7881 27.7197 27.0908C27.1865 26.3936 26.9199 25.4434 26.9199 24.2402ZM28.1914 24.3838C28.1914 25.2178 28.3623 25.874 28.7041 26.3525C29.0459 26.8265 29.5244 27.0635 30.1396 27.0635C30.9372 27.0635 31.5228 26.7012 31.8965 25.9766V22.5996C31.5091 21.8932 30.9281 21.54 30.1533 21.54C29.5381 21.54 29.0573 21.7793 28.7109 22.2578C28.3646 22.7363 28.1914 23.445 28.1914 24.3838ZM36.4561 28H35.1914V20.6035H36.4561V28ZM35.0889 18.6416C35.0889 18.4365 35.1504 18.2633 35.2734 18.1221C35.401 17.9808 35.5879 17.9102 35.834 17.9102C36.0801 17.9102 36.2669 17.9808 36.3945 18.1221C36.5221 18.2633 36.5859 18.4365 36.5859 18.6416C36.5859 18.8467 36.5221 19.0176 36.3945 19.1543C36.2669 19.291 36.0801 19.3594 35.834 19.3594C35.5879 19.3594 35.401 19.291 35.2734 19.1543C35.1504 19.0176 35.0889 18.8467 35.0889 18.6416ZM39.6826 20.6035L39.7236 21.5332C40.2887 20.8223 41.027 20.4668 41.9385 20.4668C43.5016 20.4668 44.29 21.3486 44.3037 23.1123V28H43.0391V23.1055C43.0345 22.5723 42.9115 22.1781 42.6699 21.9229C42.4329 21.6676 42.0615 21.54 41.5557 21.54C41.1455 21.54 40.7855 21.6494 40.4756 21.8682C40.1657 22.0869 39.9242 22.374 39.751 22.7295V28H38.4863V20.6035H39.6826Z" fill="white"/>
<defs>
<clipPath id="clip0_3_53">
<rect width="167" height="19" fill="white" transform="translate(81 15)"/>
</clipPath>
</defs>
</svg>
